<?xml version="1.0" encoding="UTF-8" standalone="no"?>
<!DOCTYPE svg PUBLIC "-//W3C//DTD SVG 1.1//EN" "http://www.w3.org/Graphics/SVG/1.1/DTD/svg11.dtd">
<svg width="100%" height="100%" viewBox="0 0 640 256" version="1.1" xmlns="http://www.w3.org/2000/svg" xmlns:xlink="http://www.w3.org/1999/xlink" xml:space="preserve" xmlns:serif="http://www.serif.com/" style="fill-rule:evenodd;clip-rule:evenodd;stroke-linejoin:round;stroke-miterlimit:2;">
    <g>
        <g>
            <g>
                <path d="M433.6,250.6L409.9,250.6C407.2,250.6 405.1,248.4 405.1,245.8L405.1,144.2C405.1,141.5 407.3,139.4 409.9,139.4L433.6,139.4C436.3,139.4 438.4,141.6 438.4,144.2L438.4,245.8C438.4,248.5 436.4,250.6 433.6,250.6Z" style="fill:white;fill-rule:nonzero;stroke:rgb(35,31,32);stroke-width:4px;"/>
                <path d="M351.1,216.5L351.1,144.2C351.1,141.5 348.9,139.4 346.3,139.4L322.6,139.4C319.9,139.4 317.8,141.6 317.8,144.2L317.8,245.8C317.8,248.5 320,250.6 322.6,250.6L393.2,250.6C395.9,250.6 398,248.4 398,245.8L398,226.2C398,223.5 395.8,221.4 393.2,221.4L355.9,221.4C353.3,221.3 351.1,219.3 351.1,216.5Z" style="fill:white;fill-rule:nonzero;stroke:rgb(35,31,32);stroke-width:4px;"/>
                <path d="M491.9,139.4L450.1,139.4C447.4,139.4 445.3,141.6 445.3,144.2L445.3,245.8C445.3,248.5 447.5,250.6 450.1,250.6L473.8,250.6C476.5,250.6 478.6,248.4 478.6,245.8L478.6,217.8C478.6,216.9 479.4,216.4 480.1,216.6C492,220.1 507.5,220.4 521,207.1C549.7,178.4 522.7,139.4 491.9,139.4ZM500.2,188.1C487.5,197.1 473.5,183 482.5,170.4C482.8,170 483.2,169.6 483.6,169.3C496.3,160.3 510.3,174.4 501.3,187C500.9,187.5 500.5,187.8 500.2,188.1Z" style="fill:white;fill-rule:nonzero;stroke:rgb(35,31,32);stroke-width:4px;"/>
                <path d="M635.6,157L619.3,140.7C617.4,138.8 614.6,138.8 612.6,140.7L586.6,166.7C585.9,167.4 584.6,167.4 584,166.7L558,140.7C556.1,138.8 553.3,138.8 551.3,140.7L535.1,157C533.2,158.9 533.2,161.7 535.1,163.7L568.5,197.1C568.8,197.4 569,198 569,198.4L569,246C569,248.6 571.2,250.6 573.6,250.6L596.7,250.6C599.3,250.6 601.3,248.4 601.3,246L601.3,198.5C601.3,198 601.5,197.5 601.8,197.2L635.2,163.8C637.3,161.8 637.3,158.8 635.6,157Z" style="fill:white;fill-rule:nonzero;stroke:rgb(35,31,32);stroke-width:4px;"/>
            </g>
            <path d="M308.8,244.8L266.5,196.1C265.5,194.9 265.5,193 266.6,191.8L308.5,146.1C310.7,143.7 309,140 305.8,140L277.9,140C275,140 272.3,141.2 270.5,143.3L247.1,170C245.9,171.4 243.5,170.5 243.5,168.7L243.5,143.1C243.5,141.5 242.2,140.1 240.5,140.1L213.3,140.1C211.7,140.1 210.3,141.4 210.3,143.1L210.3,247.6C210.3,249.2 211.6,250.6 213.3,250.6L240.5,250.6C242.1,250.6 243.5,249.3 243.5,247.6L243.5,218.7C243.5,216.7 246,215.9 247.2,217.5L270.5,247.1C272.4,249.5 275.2,250.9 278.2,250.9L306,250.9C309.3,250.8 310.9,247.2 308.8,244.8Z" style="fill:white;fill-rule:nonzero;stroke:rgb(35,31,32);stroke-width:4px;"/>
        </g>
        <g opacity="0.4">
            <path d="M240.8,76.4C243.5,79 244.8,82.6 244.8,87.2C244.8,90.3 244.2,93 242.9,95.1C241.7,97.4 239.9,99 237.6,100.2C235.3,101.3 232.8,102 229.9,102L219.3,102L219.3,118.6L210.2,118.6L210.2,72.5L230,72.5C234.5,72.5 238.1,73.7 240.8,76.4ZM228.9,93.8C230.9,93.8 232.4,93.2 233.6,92C234.8,90.9 235.5,89.2 235.5,87.2C235.5,85 234.9,83.4 233.6,82.3C232.4,81.2 230.7,80.5 228.9,80.5L219.4,80.5L219.4,93.9L228.9,93.8Z" style="fill:white;fill-rule:nonzero;stroke:rgb(35,31,32);stroke-width:4px;"/>
            <path d="M285.7,74.7C289.3,76.7 292.1,79.3 294.2,82.9C296.3,86.5 297.3,90.6 297.3,95.4C297.3,100.2 296.3,104.4 294.2,107.9C292.1,111.5 289.4,114.2 285.7,116.1C282,118 278.1,119 273.4,119C268.7,119 264.6,118.1 261,116.1C257.4,114.1 254.5,111.5 252.4,107.9C250.3,104.3 249.3,100.2 249.3,95.4C249.3,90.6 250.3,86.4 252.4,82.9C254.5,79.3 257.2,76.6 261,74.7C264.6,72.7 268.7,71.8 273.4,71.8C278,71.8 282.1,72.8 285.7,74.7ZM260.7,103.8C261.9,106.2 263.7,107.9 265.9,109.2C268.1,110.5 270.6,111.1 273.5,111.1C276.3,111.1 278.9,110.5 281,109.2C283.2,108 284.9,106.1 286.2,103.8C287.4,101.4 288.1,98.6 288.1,95.4C288.1,92.2 287.5,89.4 286.2,87C285,84.6 283.3,82.9 281,81.6C278.8,80.4 276.3,79.7 273.5,79.7C270.6,79.7 268.1,80.3 265.9,81.6C263.7,82.8 262,84.7 260.7,87C259.5,89.4 258.8,92.2 258.8,95.4C258.8,98.6 259.5,101.4 260.7,103.8Z" style="fill:white;fill-rule:nonzero;stroke:rgb(35,31,32);stroke-width:4px;"/>
            <path d="M333.6,88.4L323.6,118.4L315.9,118.4L299.8,72.4L309.8,72.4L319.8,103.3L329.8,72.4L337.3,72.4L347.3,103.3L357.3,72.4L367.3,72.4L351.2,118.5L343.5,118.5L333.6,88.4Z" style="fill:white;fill-rule:nonzero;stroke:rgb(35,31,32);stroke-width:4px;"/>
            <path d="M381.9,90.9L399.6,90.9L399.6,98.8L382,98.8L382,110.3L402.3,110.3L402.3,118.4L372.8,118.4L372.8,72.5L402.2,72.5L402.2,80.5L381.9,80.5L381.9,90.9Z" style="fill:white;fill-rule:nonzero;stroke:rgb(35,31,32);stroke-width:4px;"/>
            <path d="M410,72.5L429.5,72.5C433.9,72.5 437.5,73.8 440.2,76.4C442.9,79 444.2,82.6 444.2,87.2C444.2,90.4 443.6,93.1 442.2,95.3C440.9,97.6 439,99.2 436.6,100.4L446.6,118.6L436.3,118.6L427.2,101.9L419.2,101.9L419.2,118.6L410.1,118.6L410.1,72.5L410,72.5ZM428.3,93.7C430.3,93.7 431.9,93.1 433.1,91.9C434.3,90.7 435,89.1 435,87.1C435,85 434.4,83.4 433.1,82.3C431.9,81.2 430.3,80.5 428.3,80.5L419,80.5L419,93.7L428.3,93.7Z" style="fill:white;fill-rule:nonzero;stroke:rgb(35,31,32);stroke-width:4px;"/>
            <path d="M462.4,90.9L480.1,90.9L480.1,98.8L462.5,98.8L462.5,110.3L482.8,110.3L482.8,118.4L453.3,118.4L453.3,72.5L482.7,72.5L482.7,80.5L462.4,80.5L462.4,90.9Z" style="fill:white;fill-rule:nonzero;stroke:rgb(35,31,32);stroke-width:4px;"/>
            <path d="M520.9,75.1C524.3,77 527.1,79.6 529,83C531,86.5 532,90.5 532,95.3C532,100.1 531,104.2 529,107.6C527,111.1 524.3,113.7 520.9,115.5C517.5,117.4 513.5,118.3 509.1,118.3L490.3,118.3L490.3,72.5L509.2,72.5C513.6,72.5 517.5,73.4 520.9,75.1ZM509.3,110.6C513.5,110.6 516.8,109.3 519.3,106.7C521.8,104.1 523,100.3 523,95.5C523,90.6 521.8,86.8 519.3,84.3C516.8,81.7 513.5,80.4 509.3,80.4L499.5,80.4L499.5,110.7L509.3,110.6Z" style="fill:white;fill-rule:nonzero;stroke:rgb(35,31,32);stroke-width:4px;"/>
            <path d="M583.2,75.7C585.8,77.9 587.1,81.1 587.1,85.2C587.1,87.3 586.7,89.1 586,90.6C585.2,92.1 584.1,93.4 582.9,94.3C584.7,95.1 586.1,96.4 587.2,98.3C588.3,100.2 589,102.4 589,105.2C589,109.5 587.7,112.8 585,115.1C582.3,117.4 578.7,118.5 574.3,118.5L553.9,118.5L553.9,72.5L573,72.5C577.1,72.5 580.6,73.5 583.2,75.7ZM572.4,91C574,91 575.4,90.6 576.4,89.8C577.3,89 577.8,87.6 577.8,85.9C577.8,84.1 577.3,82.8 576.2,81.9C575.2,81 573.6,80.6 571.8,80.6L562.9,80.6L562.9,91L572.4,91ZM573.1,110.4C575.2,110.4 576.7,109.9 577.9,109C579.1,108.1 579.7,106.6 579.7,104.7C579.7,102.7 579.1,101.3 577.9,100.4C576.8,99.5 575.2,99 573.3,99L562.9,99L562.9,110.5L573.1,110.4Z" style="fill:white;fill-rule:nonzero;stroke:rgb(35,31,32);stroke-width:4px;"/>
            <path d="M609,118.4L609,100.6L591.5,72.3L602.1,72.3L613.5,91.5L625,72.4L635.6,72.4L618.2,100.7L618.2,118.5L609,118.4Z" style="fill:white;fill-rule:nonzero;stroke:rgb(35,31,32);stroke-width:4px;"/>
        </g>
        <g>
            <g>
                <g>
                    <path d="M197,244L145.1,163.9C144.2,162.4 144.2,160.6 145.1,159.2L193.8,79.1C195.6,76 193.5,72.3 190,72.3L159.3,79.3C134.9,84.9 127.7,99.1 113,119.4C110.2,123.4 108.3,126 108.3,126C106.1,130.1 99.9,128.5 99.9,123.8L99.9,57.9C81.2,57.9 71.5,64.7 64,71C40.6,90.2 35.6,114.1 35.6,144.5L35.6,246.4C35.6,248.9 37.6,250.9 40.1,250.9L95.6,250.9C98.1,250.9 100.1,248.9 100.1,246.4L100.1,195.6C100.1,191.1 106,189.5 108.4,193.3L127.2,248.8C128.1,250.3 129.5,251 131,251L193.5,251C196.8,250.8 199,246.9 197,244ZM86.9,81.3C83.5,81.3 80.8,78.6 80.8,75.2C80.8,71.8 83.5,69.1 86.9,69.1C90.3,69.1 93,71.8 93,75.2C93,78.6 90.3,81.3 86.9,81.3Z" style="fill:rgb(247,220,60);fill-rule:nonzero;"/>
                </g>
                <path d="M27.4,116.6C27.9,117.9 32.2,48.3 100.3,47.8C100.3,47.8 45.2,-16.9 24.7,11.9C24.7,11.9 14.6,27.7 34.1,32.7C34.1,32.7 2.6,41 3.2,62.9C3.4,69.7 10.4,74.2 16.7,71.5C20.3,69.9 25,66.8 30.9,61.3C30.8,61.1 17,88.8 27.4,116.6Z" style="fill:rgb(238,69,35);fill-rule:nonzero;"/>
            </g>
            <path d="M107.2,60.6L107.2,77.5C107.2,78.8 108.5,79.5 109.5,78.8L125.7,68L109.5,59.2C108.4,58.8 107.2,59.5 107.2,60.6Z" style="fill:rgb(238,69,35);fill-rule:nonzero;"/>
        </g>
    </g>
</svg>
