<?xml version="1.0" encoding="UTF-8" standalone="no"?><!DOCTYPE svg PUBLIC "-//W3C//DTD SVG 1.1//EN" "http://www.w3.org/Graphics/SVG/1.1/DTD/svg11.dtd"><svg width="100%" height="100%" viewBox="0 0 534 534" version="1.1" xmlns="http://www.w3.org/2000/svg" xmlns:xlink="http://www.w3.org/1999/xlink" xml:space="preserve" xmlns:serif="http://www.serif.com/" style="fill-rule:evenodd;clip-rule:evenodd;stroke-linejoin:round;stroke-miterlimit:2;"><rect id="ArtBoard1" x="-0" y="0" width="533.333" height="533.333" style="fill:none;"/><clipPath id="_clip1"><rect x="-0" y="0" width="533.333" height="533.333"/></clipPath><g clip-path="url(#_clip1)"><g><g><path d="M266.667,24.609c54.805,-0.024 105.605,29.359 132.913,76.877l2.178,3.921l3.05,0.654c67.107,15.683 115.788,74.769 118.342,143.636l0.097,5.664c-0,0.008 -0,0.016 -0,0.024c-0,84.095 -69.2,153.295 -153.295,153.295c0,-0 -0.847,-0.049 -0.847,-0.049l-0.847,1.211c-22.844,30.178 -57.995,48.65 -95.806,50.347l-5.785,0.121c-11.651,0 -22.98,-1.533 -33.985,-4.599l-1.138,-0.338l-83.122,49.887c-3.767,2.267 -8.082,3.465 -12.478,3.465c-12.242,-0 -22.654,-9.287 -24.048,-21.449l-0.145,-2.76l-0,-58.916l-2.929,-1.453c-27.439,-14.608 -45.287,-42.594 -46.959,-73.633l-0.146,-4.769c0,-5.89 0.565,-11.675 1.695,-17.355l0.314,-1.404l-2.735,-2.179c-30.594,-25.304 -49.062,-62.434 -50.783,-102.099l-0.121,-6.052c-0,-77.017 63.375,-140.392 140.393,-140.392l1.403,0.024l3.631,-3.946c27.384,-28.89 64.99,-45.981 104.762,-47.612l6.391,-0.121Z" style="fill:url(#_Linear2);fill-rule:nonzero;"/><path d="M266.667,24.609c54.805,-0.024 105.605,29.359 132.913,76.877l2.178,3.921l3.05,0.654c67.107,15.683 115.788,74.769 118.342,143.636l0.097,5.664c-0,0.008 -0,0.016 -0,0.024c-0,84.095 -69.2,153.295 -153.295,153.295c0,-0 -0.847,-0.049 -0.847,-0.049l-0.847,1.211c-22.844,30.178 -57.995,48.65 -95.806,50.347l-5.785,0.121c-11.651,0 -22.98,-1.533 -33.985,-4.599l-1.138,-0.338l-83.122,49.887c-3.767,2.267 -8.082,3.465 -12.478,3.465c-12.242,-0 -22.654,-9.287 -24.048,-21.449l-0.145,-2.76l-0,-58.916l-2.929,-1.453c-27.439,-14.608 -45.287,-42.594 -46.959,-73.633l-0.146,-4.769c0,-5.89 0.565,-11.675 1.695,-17.355l0.314,-1.404l-2.735,-2.179c-30.594,-25.304 -49.062,-62.434 -50.783,-102.099l-0.121,-6.052c-0,-77.017 63.375,-140.392 140.393,-140.392l1.403,0.024l3.631,-3.946c27.384,-28.89 64.99,-45.981 104.762,-47.612l6.391,-0.121Z" style="fill:url(#_Linear3);fill-rule:nonzero;"/><path d="M303.09,345.572c23.939,-0 43.638,19.699 43.638,43.638c0,-23.939 19.7,-43.638 43.639,-43.638c-23.939,-0 -43.639,-19.7 -43.639,-43.639c0,23.939 -19.699,43.639 -43.638,43.639m-12.122,-195.311c23.939,0 43.639,19.7 43.639,43.639c-0,-23.939 19.699,-43.639 43.638,-43.639c-23.939,0 -43.638,-19.699 -43.638,-43.638c-0,23.939 -19.7,43.638 -43.639,43.638m-72.096,245.639c0,-71.819 59.098,-130.916 130.916,-130.916c-71.818,-0 -130.916,-59.098 -130.916,-130.916c0,71.818 -59.098,130.916 -130.916,130.916c71.818,-0 130.916,59.097 130.916,130.916" style="fill:url(#_Linear4);fill-rule:nonzero;"/></g><path d="M303.09,345.572c23.939,-0 43.638,19.699 43.638,43.638c0,-23.939 19.7,-43.638 43.639,-43.638c-23.939,-0 -43.639,-19.7 -43.639,-43.639c0,23.939 -19.699,43.639 -43.638,43.639m-12.122,-195.311c23.939,0 43.639,19.7 43.639,43.639c-0,-23.939 19.699,-43.639 43.638,-43.639c-23.939,0 -43.638,-19.699 -43.638,-43.638c-0,23.939 -19.7,43.638 -43.639,43.638m-72.096,245.639c0,-71.819 59.098,-130.916 130.916,-130.916c-71.818,-0 -130.916,-59.098 -130.916,-130.916c0,71.818 -59.098,130.916 -130.916,130.916c71.818,-0 130.916,59.097 130.916,130.916" style="fill:url(#_Linear5);fill-rule:nonzero;"/></g></g><defs><linearGradient id="_Linear2" x1="0" y1="0" x2="1" y2="0" gradientUnits="userSpaceOnUse" gradientTransform="matrix(-167.89,316.594,-316.594,-167.89,308.761,191.623)"><stop offset="0" style="stop-color:#165dfb;stop-opacity:1"/><stop offset="1" style="stop-color:#50a2ff;stop-opacity:1"/></linearGradient><linearGradient id="_Linear3" x1="0" y1="0" x2="1" y2="0" gradientUnits="userSpaceOnUse" gradientTransform="matrix(-167.89,316.594,-316.594,-167.89,308.761,191.623)"><stop offset="0" style="stop-color:#165dfb;stop-opacity:1"/><stop offset="1" style="stop-color:#50a2ff;stop-opacity:1"/></linearGradient><linearGradient id="_Linear4" x1="0" y1="0" x2="1" y2="0" gradientUnits="userSpaceOnUse" gradientTransform="matrix(166.331,-289.277,289.277,166.331,203.844,395.9)"><stop offset="0" style="stop-color:#165dfb;stop-opacity:1"/><stop offset="1" style="stop-color:#50a2ff;stop-opacity:1"/></linearGradient><linearGradient id="_Linear5" x1="0" y1="0" x2="1" y2="0" gradientUnits="userSpaceOnUse" gradientTransform="matrix(166.331,-289.277,289.277,166.331,203.844,395.9)"><stop offset="0" style="stop-color:#165dfb;stop-opacity:1"/><stop offset="1" style="stop-color:#50a2ff;stop-opacity:1"/></linearGradient></defs></svg>